<?xml version="1.0" encoding="UTF-8"?>
<svg version="1.1" xmlns="http://www.w3.org/2000/svg" width="720" height="720">
<path d="M0 0 C2.11365528 0.00948687 4.22728583 0.01432203 6.34095764 0.01854706 C26.96691214 0.07418878 47.18625728 0.62730378 67.51637268 4.44683075 C68.70263245 4.66113739 69.88889221 4.87544403 71.11109924 5.09624481 C154.80280762 20.55636948 231.72695025 67.63077542 284.51637268 134.44683075 C285.39547605 135.5022258 286.27714191 136.55548991 287.16090393 137.606987 C323.11404707 180.78997147 346.88824217 234.11977246 357.32887268 289.13433075 C357.51167786 290.09210419 357.69448303 291.04987762 357.88282776 292.0366745 C358.4953159 295.49809613 359.02199088 298.96705162 359.51637268 302.44683075 C359.64132111 303.3093042 359.76626953 304.17177765 359.89500427 305.06038666 C362.37940416 322.68742392 363.04675863 340.14951421 362.96320343 357.93045807 C362.95371656 360.04411335 362.9488814 362.1577439 362.94465637 364.27141571 C362.88901465 384.89737021 362.33589965 405.11671535 358.51637268 425.44683075 C358.30206604 426.63309052 358.0877594 427.81935028 357.86695862 429.04155731 C342.40683395 512.73326568 295.33242801 589.65740831 228.51637268 642.44683075 C227.46097763 643.32593412 226.40771352 644.20759998 225.35621643 645.091362 C182.17323196 681.04450514 128.84343097 704.81870024 73.82887268 715.25933075 C72.87109924 715.44213593 71.91332581 715.6249411 70.92652893 715.81328583 C67.4651073 716.42577396 63.99615181 716.95244895 60.51637268 717.44683075 C59.65389923 717.57177917 58.79142578 717.6967276 57.90281677 717.82546234 C40.27577951 720.30986223 22.81368922 720.9772167 5.03274536 720.8936615 C2.91909008 720.88417463 0.80545953 720.87933946 -1.30821228 720.87511444 C-21.93416678 720.81947272 -42.15351192 720.26635772 -62.48362732 716.44683075 C-63.66988708 716.23252411 -64.85614685 716.01821747 -66.07835388 715.79741669 C-149.77006225 700.33729202 -226.69420488 653.26288608 -279.48362732 586.44683075 C-280.36273069 585.3914357 -281.24439655 584.33817159 -282.12815857 583.2866745 C-318.08130171 540.10369003 -341.85549681 486.77388903 -352.29612732 431.75933075 C-352.57033508 430.32267059 -352.57033508 430.32267059 -352.8500824 428.856987 C-353.46257053 425.39556537 -353.98924552 421.92660988 -354.48362732 418.44683075 C-354.60857574 417.5843573 -354.73352417 416.72188385 -354.86225891 415.83327484 C-357.3466588 398.20623758 -358.01401327 380.74414729 -357.93045807 362.96320343 C-357.9209712 360.84954815 -357.91613603 358.7359176 -357.91191101 356.62224579 C-357.85626929 335.99629129 -357.30315429 315.77694615 -353.48362732 295.44683075 C-353.26932068 294.26057098 -353.05501404 293.07431122 -352.83421326 291.85210419 C-337.37408859 208.16039581 -290.29968265 131.23625318 -223.48362732 78.44683075 C-222.42823227 77.56772738 -221.37496816 76.68606152 -220.32347107 75.8022995 C-177.1404866 39.84915636 -123.8106856 16.07496126 -68.79612732 5.63433075 C-67.35946716 5.36012299 -67.35946716 5.36012299 -65.89378357 5.08037567 C-62.43236194 4.46788753 -58.96340645 3.94121255 -55.48362732 3.44683075 C-54.62115387 3.32188232 -53.75868042 3.1969339 -52.87007141 3.06819916 C-35.24303415 0.58379927 -17.78094386 -0.0835552 0 0 Z " fill="#D4925B" transform="translate(357.48362731933594,-0.44683074951171875)"/>
<path d="M0 0 C5.30011364 3.49079841 8.88564754 7.66657386 10.29296875 13.88671875 C11.87384451 19.50122298 15.93987256 21.32096775 20.7109375 24.234375 C41.40913741 36.97403028 56.12575431 59.18587429 62.98046875 82.19921875 C63.18365723 82.88000488 63.3868457 83.56079102 63.59619141 84.26220703 C66.42150047 94.37705811 66.23324934 104.52526268 66.16796875 114.94921875 C66.16294241 116.35351402 66.15838151 117.75781105 66.15429688 119.16210938 C66.14258468 122.57035778 66.12618247 125.97851515 66.10546875 129.38671875 C66.92096191 129.36859131 67.73645508 129.35046387 68.57666016 129.33178711 C69.65093262 129.31768799 70.72520508 129.30358887 71.83203125 129.2890625 C72.89502441 129.27093506 73.95801758 129.25280762 75.05322266 129.23413086 C81.30148928 129.54649421 85.35737101 132.28484672 89.48046875 136.82421875 C93.77349765 141.99264181 94.54471686 146.97457646 94.4296875 153.53125 C93.77646959 159.2842897 91.13746356 165.17145145 87.10546875 169.38671875 C86.44546875 169.38671875 85.78546875 169.38671875 85.10546875 169.38671875 C85.34330078 170.41925781 85.34330078 170.41925781 85.5859375 171.47265625 C87.62511644 182.9104569 85.78239464 192.44141429 80.41796875 202.57421875 C73.62595778 210.83477263 66.47384476 215.49967429 56.10546875 218.38671875 C54.78546875 218.38671875 53.46546875 218.38671875 52.10546875 218.38671875 C51.82896484 220.07861328 51.82896484 220.07861328 51.546875 221.8046875 C46.80426236 248.39362069 33.60992559 273.45477679 13.10546875 291.38671875 C12.51878418 291.65822754 11.93209961 291.92973633 11.32763672 292.20947266 C9.02125165 293.39512889 7.69961634 294.32011317 6.10546875 296.38671875 C5.2656914 300.60574405 5.26495389 304.69816456 5.41259766 308.98925781 C5.48053476 311.01368573 5.49459744 313.03312664 5.5 315.05859375 C5.2367608 321.4080448 5.2367608 321.4080448 7.31347656 327.15429688 C9.56321171 328.70152617 11.75519079 329.60938708 14.31640625 330.56640625 C15.43345947 330.99026611 16.5505127 331.41412598 17.70141602 331.85083008 C18.31252228 332.0788028 18.92362854 332.30677551 19.55325317 332.54165649 C22.99081289 333.82602604 26.41630539 335.14205522 29.84375 336.453125 C31.00338509 336.89560829 31.00338509 336.89560829 32.18644714 337.34703064 C42.85901015 341.4262638 53.49163998 345.60749223 64.11968994 349.80108643 C66.46627128 350.72571253 68.81387303 351.64775356 71.16253662 352.56707764 C106.36636978 366.34820252 106.36636978 366.34820252 117.10546875 377.38671875 C117.65460938 377.90363281 118.20375 378.42054688 118.76953125 378.953125 C142.48400077 403.23826357 148.01985936 454.07042624 148.60546875 486.26171875 C148.6516333 487.75094849 148.6516333 487.75094849 148.69873047 489.27026367 C148.69969672 494.92720117 147.90885911 498.84492396 144.86523438 503.63720703 C140.36520672 508.11101366 135.95473781 509.83384821 129.75782776 509.92883301 C128.58473305 509.91668762 128.58473305 509.91668762 127.38793945 509.90429688 C126.12320297 509.91481079 126.12320297 509.91481079 124.83291626 509.92553711 C122.06535235 509.94304327 119.29882301 509.9315241 116.53125 509.91796875 C114.60027369 509.92066503 112.6692987 509.92454859 110.73832703 509.92956543 C106.70098889 509.93544981 102.66400574 509.92692886 98.62670898 509.90820312 C93.45134785 509.88536825 88.27681442 509.89857204 83.10148335 509.92249298 C79.11833953 509.93694043 75.13539237 509.9323506 71.15224266 509.92198181 C69.24365325 509.91931399 67.33504598 509.92258622 65.42647743 509.93190002 C62.76210741 509.94205339 60.09908407 509.92658425 57.43481445 509.90429688 C56.64667862 509.9123938 55.85854279 509.92049072 55.04652405 509.92883301 C51.53941195 509.87445165 49.48701051 509.66469012 46.61613464 507.57312012 C44.39870355 504.36381064 44.56186535 502.19194252 45.10546875 498.38671875 C46.48046875 495.94921875 46.48046875 495.94921875 49.10546875 494.38671875 C51.54931641 494.23413086 51.54931641 494.23413086 54.26953125 494.2890625 C55.62618896 494.31021118 55.62618896 494.31021118 57.01025391 494.33178711 C58.04738525 494.35897827 58.04738525 494.35897827 59.10546875 494.38671875 C59.06378633 487.09056866 58.99144636 479.79518054 58.89794922 472.49951172 C58.86975179 470.01846194 58.8485312 467.53732253 58.83447266 465.05615234 C58.81302713 461.48618728 58.76636533 457.91729847 58.71484375 454.34765625 C58.71300079 452.68795303 58.71300079 452.68795303 58.71112061 450.99472046 C58.52727571 441.29253623 55.3356794 437.44935296 48.73046875 430.51171875 C39.60700589 420.70573268 30.95488065 410.45960994 30.99194336 396.4128418 C30.99201889 395.45222336 30.99209442 394.49160492 30.99217224 393.50187683 C30.99733353 392.47774185 31.00249481 391.45360687 31.0078125 390.3984375 C31.00993492 388.81093437 31.00993492 388.81093437 31.01210022 387.19136047 C31.01768716 383.81895086 31.03023731 380.44660821 31.04296875 377.07421875 C31.04798544 374.78450617 31.05254805 372.49479254 31.05664062 370.20507812 C31.06765232 364.59893558 31.08437749 358.99283195 31.10546875 353.38671875 C30.49058594 353.18175781 29.87570312 352.97679687 29.2421875 352.765625 C24.17382813 351.07617188 24.17382813 351.07617188 19.10546875 349.38671875 C19.10135986 350.40918701 19.09725098 351.43165527 19.09301758 352.48510742 C19.07095988 356.34171428 19.01640417 360.19733884 18.95288086 364.0534668 C18.92992982 365.71059633 18.91535989 367.36786698 18.90991211 369.02514648 C18.8606187 381.56463217 18.20439919 393.18508673 9.29296875 402.94921875 C1.28616332 410.1100221 -6.47900004 411.54947862 -16.9140625 411.484375 C-17.77263351 411.48296005 -18.63120453 411.4815451 -19.51579285 411.48008728 C-22.24624174 411.47450932 -24.97660732 411.46196089 -27.70703125 411.44921875 C-29.56314985 411.4442009 -31.41926975 411.43963849 -33.27539062 411.43554688 C-37.81516175 411.42539987 -42.35475371 411.4058202 -46.89453125 411.38671875 C-46.89453125 418.31671875 -46.89453125 425.24671875 -46.89453125 432.38671875 C-40.91110952 432.22935797 -40.91110952 432.22935797 -34.92919922 432.02636719 C-29.42565368 431.95368991 -26.16180522 432.5734101 -21.89453125 436.38671875 C-17.89434737 441.98075859 -18.41505816 447.1733922 -18.45703125 453.82421875 C-18.43705078 454.94376953 -18.41707031 456.06332031 -18.39648438 457.21679688 C-18.40013539 463.36875143 -18.44488299 467.7088834 -22.89453125 472.38671875 C-27.41857691 476.39037326 -32.49638555 475.73161464 -38.20703125 475.57421875 C-39.13837891 475.56068359 -40.06972656 475.54714844 -41.02929688 475.53320312 C-43.31795837 475.49799295 -45.60632054 475.44419009 -47.89453125 475.38671875 C-47.89453125 481.65671875 -47.89453125 487.92671875 -47.89453125 494.38671875 C-45.7040918 494.36577148 -43.51365234 494.34482422 -41.25683594 494.32324219 C-34.02054467 494.25697042 -26.78424001 494.21278273 -19.54772568 494.17947006 C-15.16007183 494.15859304 -10.77272884 494.13027365 -6.38525391 494.08496094 C-2.15124709 494.04150674 2.08246069 494.01758251 6.31667328 494.00720978 C7.93224546 493.99981758 9.54780124 493.98538225 11.16324615 493.96379852 C13.42592258 493.93476893 15.6873627 493.93076237 17.95019531 493.93261719 C19.23815002 493.92373474 20.52610474 493.91485229 21.85308838 493.90570068 C25.10546875 494.38671875 25.10546875 494.38671875 27.51751709 496.1963501 C29.10546875 498.38671875 29.10546875 498.38671875 29.66796875 501.88671875 C29.10546875 505.38671875 29.10546875 505.38671875 27.22144032 507.57330227 C22.71836126 510.19398016 18.812839 509.94397651 13.68742371 509.90138245 C12.62707249 509.90832797 11.56672128 509.9152735 10.47423822 509.9224295 C6.91514838 509.94075034 3.35672128 509.93042053 -0.20239258 509.92016602 C-2.75169881 509.92722196 -5.30100086 509.9359656 -7.85029602 509.9462738 C-14.06007666 509.96647359 -20.26961173 509.96778533 -26.47941259 509.95964826 C-31.52787008 509.95334779 -36.57627414 509.95448572 -41.62473106 509.96092033 C-42.34333775 509.96182199 -43.06194444 509.96272364 -43.80232709 509.96365262 C-45.26221359 509.96550384 -46.72210007 509.9673664 -48.18198653 509.96924018 C-61.87388558 509.98582125 -75.5656816 509.97709766 -89.25757446 509.9602546 C-101.77760417 509.94556512 -114.29739373 509.96017479 -126.81739251 509.98902477 C-139.67715675 510.01843656 -152.53681023 510.02938537 -165.39660662 510.01984257 C-166.85203244 510.01882003 -168.30745828 510.01782542 -169.76288414 510.01685905 C-170.47895217 510.01638266 -171.19502021 510.01590627 -171.93278727 510.01541545 C-176.97209336 510.01325324 -182.01129437 510.02304534 -187.05057716 510.03763008 C-193.83947565 510.05700451 -200.62785758 510.0500434 -207.4167614 510.02543068 C-209.90802919 510.02041852 -212.39933091 510.02392291 -214.89057159 510.03657913 C-218.29273997 510.05249515 -221.6934364 510.0375699 -225.09553528 510.01490784 C-226.57293512 510.03266143 -226.57293512 510.03266143 -228.08018142 510.05077368 C-234.52449437 509.96362171 -238.9462249 508.62301067 -243.89453125 504.38671875 C-248.44505127 499.07921953 -248.490523 493.65190485 -248.33203125 486.88671875 C-248.31221191 485.38081177 -248.31221191 485.38081177 -248.29199219 483.84448242 C-248.03625028 472.90299136 -246.67427425 462.17362681 -244.89453125 451.38671875 C-244.76062988 450.55108398 -244.62672852 449.71544922 -244.48876953 448.85449219 C-240.66866064 425.67453445 -234.50947671 396.02863655 -217.89453125 378.38671875 C-217.27964844 377.69449219 -216.66476563 377.00226563 -216.03125 376.2890625 C-204.25970702 363.66826993 -186.58768492 358.57992306 -170.89453125 352.44921875 C-168.7539965 351.61046045 -166.613739 350.77099753 -164.47351074 349.93145752 C-162.97401448 349.34327927 -161.47442014 348.755351 -159.97473145 348.16766357 C-154.18209551 345.89637523 -148.39668219 343.60718871 -142.61328125 341.3125 C-140.89324671 340.63073374 -139.17319474 339.94901144 -137.453125 339.26733398 C-134.94497183 338.27332144 -132.43709399 337.27864802 -129.93017578 336.28152466 C-113.84273444 329.88420461 -113.84273444 329.88420461 -105.89453125 327.38671875 C-105.64541142 323.11872118 -105.46505794 318.85466824 -105.34521484 314.58154297 C-105.29522714 313.13189963 -105.22720065 311.68275294 -105.14013672 310.23486328 C-104.46201813 301.4368331 -104.46201813 301.4368331 -108.04199219 293.71362305 C-110.57023359 291.70105236 -113.12449152 290.04253899 -115.89453125 288.38671875 C-136.14576055 271.0568466 -145.83472053 245.56442791 -151.89453125 220.38671875 C-151.89453125 219.39671875 -151.89453125 218.40671875 -151.89453125 217.38671875 C-152.80203125 217.51046875 -153.70953125 217.63421875 -154.64453125 217.76171875 C-162.01800081 217.74673202 -169.5475668 213.00490153 -174.83203125 208.13671875 C-178.50114881 204.10068944 -180.82596554 199.39931056 -182.89453125 194.38671875 C-183.27480469 193.47921875 -183.65507812 192.57171875 -184.046875 191.63671875 C-185.13870995 187.45051287 -184.86327005 183.73632219 -184.64453125 179.44921875 C-184.29316603 172.16646551 -184.29316603 172.16646551 -187.76953125 166.01171875 C-188.30320313 165.57085937 -188.836875 165.13 -189.38671875 164.67578125 C-192.35036952 162.14209018 -192.8497879 159.83831444 -193.23046875 155.99609375 C-193.37575454 141.64185804 -193.37575454 141.64185804 -188.89453125 136.38671875 C-183.05675042 130.96331067 -177.66372618 128.08409908 -169.58203125 128.26171875 C-168.51339844 128.27976563 -167.44476563 128.2978125 -166.34375 128.31640625 C-165.53550781 128.33960938 -164.72726563 128.3628125 -163.89453125 128.38671875 C-163.92595215 127.26366333 -163.92595215 127.26366333 -163.95800781 126.11791992 C-164.78310873 92.01984113 -157.57098972 63.38233765 -134.421875 37.63671875 C-128.14613534 31.11233647 -121.16641442 25.16765571 -113.125 20.92578125 C-110.75391022 19.61571949 -110.75391022 19.61571949 -110.21484375 17.40625 C-110.15039062 16.67792969 -110.0859375 15.94960937 -110.01953125 15.19921875 C-108.88798738 8.76618229 -105.17187675 4.84127076 -100.04296875 1 C-94.63136596 -2.17347077 -89.0290762 -2.5214432 -82.89453125 -1.61328125 C-78.95262913 -0.24607371 -75.84661192 1.43463808 -72.89453125 4.38671875 C-70.9189283 4.71226797 -70.9189283 4.71226797 -68.63183594 4.69311523 C-67.75041931 4.70910263 -66.86900269 4.72509003 -65.96087646 4.74156189 C-65.00570129 4.74692459 -64.05052612 4.75228729 -63.06640625 4.7578125 C-62.08464417 4.76684097 -61.10288208 4.77586945 -60.09136963 4.78517151 C-58.0100002 4.79969975 -55.92858483 4.80856711 -53.84716797 4.81225586 C-50.67075808 4.82412078 -47.49631023 4.87325491 -44.3203125 4.92382812 C-42.29818657 4.93329576 -40.27604869 4.94052916 -38.25390625 4.9453125 C-37.306828 4.96484482 -36.35974976 4.98437714 -35.38397217 5.00450134 C-30.91771933 4.97413903 -27.89476128 4.8697064 -24.38769531 1.93383789 C-23.56495117 1.09328857 -22.74220703 0.25273926 -21.89453125 -0.61328125 C-15.17556317 -4.5326793 -6.69491611 -3.37708158 0 0 Z " fill="#030201" transform="translate(409.89453125,80.61328125)"/>
<path d="M0 0 C58.74 0 117.48 0 178 0 C178 36.35080645 178 36.35080645 175 48 C174.83371094 48.68626465 174.66742188 49.3725293 174.49609375 50.07958984 C167.52166336 78.52622489 150.75353794 101.45232327 126 117 C108.75509005 126.17910885 86.97715009 129.92701886 67.875 124.5 C65.88756188 123.73868298 63.92827406 122.90070696 62 122 C61.40574219 121.72623535 60.81148438 121.4524707 60.19921875 121.17041016 C51.07236301 116.88348326 43.58124807 111.65548511 36 105 C35.16210938 104.35289062 34.32421875 103.70578125 33.4609375 103.0390625 C12.71541207 85.84991286 3.16413025 56.62945502 0 31 C0 20.77 0 10.54 0 0 Z " fill="#D5925B" transform="translate(271,255)"/>
<path d="M0 0 C0.12448527 5.6558447 0.21475374 11.31087539 0.2746582 16.96777344 C0.29965487 18.88816232 0.33366412 20.80845751 0.37719727 22.72851562 C0.6492957 35.04657163 0.54418459 43.71566989 -7.140625 53.8125 C-7.83671875 54.534375 -8.5328125 55.25625 -9.25 56 C-10.02214844 56.82371094 -10.79429687 57.64742188 -11.58984375 58.49609375 C-13.20682882 60.17597613 -14.82401888 61.85566121 -16.44140625 63.53515625 C-17.22386719 64.36917969 -18.00632812 65.20320313 -18.8125 66.0625 C-19.52019531 66.79597656 -20.22789062 67.52945313 -20.95703125 68.28515625 C-26.80841011 76.06088916 -27.59923462 83.36427552 -27.609375 92.91015625 C-27.62591125 94.11820419 -27.64244751 95.32625214 -27.65948486 96.57090759 C-27.70778392 100.40149106 -27.72929676 104.231678 -27.75 108.0625 C-27.77817463 110.67124371 -27.80810412 113.2799691 -27.83984375 115.88867188 C-27.91353835 122.25904303 -27.96528675 128.6293035 -28 135 C-35.54498233 135.02312851 -43.08996101 135.04091769 -50.63497066 135.05181217 C-54.13808885 135.05703989 -57.64118285 135.0641355 -61.14428711 135.07543945 C-65.16780841 135.08834206 -69.19130414 135.09322912 -73.21484375 135.09765625 C-74.47836166 135.10281754 -75.74187958 135.10797882 -77.04368591 135.11329651 C-78.204814 135.11337204 -79.36594208 135.11344757 -80.56225586 135.11352539 C-81.59039902 135.115746 -82.61854218 135.11796661 -83.67784119 135.12025452 C-86 135 -86 135 -87 134 C-89.05888587 100.77053967 -81.59216765 55.358327 -61.03515625 28.42578125 C-53.24427698 20.07951256 -42.30219533 16.27883915 -31.9375 12.0625 C-30.64348202 11.53175267 -29.3495371 11.00082716 -28.05566406 10.46972656 C-2.47092738 0 -2.47092738 0 0 0 Z " fill="#D4915B" transform="translate(264,440)"/>
<path d="M0 0 C27.63730518 10.28829759 27.63730518 10.28829759 40.75 15.75 C41.56235107 16.07734131 42.37470215 16.40468262 43.21166992 16.74194336 C57.74318388 22.91764689 65.35891919 33.38141728 71.15380859 47.58398438 C81.71387669 74.33271432 88.95155002 105.10204777 87 134 C86 135 86 135 83.67784119 135.12025452 C82.64969803 135.11803391 81.62155487 135.11581329 80.56225586 135.11352539 C79.40112778 135.11344986 78.23999969 135.11337433 77.04368591 135.11329651 C75.14840904 135.10555458 75.14840904 135.10555458 73.21484375 135.09765625 C71.92888809 135.0962413 70.64293243 135.09482635 69.31800842 135.09336853 C65.89356557 135.08954418 62.46916491 135.07971462 59.04473877 135.06866455 C55.55261811 135.05844864 52.06049066 135.05387053 48.56835938 135.04882812 C41.71222222 135.03809227 34.85611313 135.02101684 28 135 C27.99857498 134.33316193 27.99714996 133.66632385 27.99568176 132.97927856 C27.97590768 126.00270097 27.92146859 119.02698924 27.84741211 112.05078125 C27.82429715 109.45156071 27.80985178 106.85224738 27.80444336 104.25292969 C27.79510688 100.50397338 27.75400867 96.75646376 27.70703125 93.0078125 C27.7109639 91.85636749 27.71489655 90.70492249 27.71894836 89.51858521 C27.54297456 79.66071423 24.65335411 72.15903389 17.75 65 C16.97785156 64.17371094 16.20570313 63.34742188 15.41015625 62.49609375 C13.80353205 60.83218311 12.18628045 59.17846874 10.55859375 57.53515625 C9.77613281 56.71917969 8.99367188 55.90320313 8.1875 55.0625 C7.47980469 54.35222656 6.77210938 53.64195312 6.04296875 52.91015625 C-1.32469476 42.41510976 -0.48538146 31.06899004 -0.25 18.8125 C-0.22989843 16.98374358 -0.21165415 15.15496576 -0.1953125 13.32617188 C-0.15161983 8.88357815 -0.08279646 4.44202996 0 0 Z " fill="#D4915B" transform="translate(456,440)"/>
<path d="M0 0 C0.01401855 1.73902588 0.01401855 1.73902588 0.02832031 3.51318359 C0.06849635 7.85600798 0.13432906 12.19814434 0.20751953 16.54052734 C0.23557016 18.41218154 0.25686302 20.28395069 0.27099609 22.15576172 C0.17451366 39.27243759 0.17451366 39.27243759 8.25 53.875 C15.26925876 60.26162171 22.51360729 62.02905397 31.83203125 62.31640625 C33.77045898 62.37924805 33.77045898 62.37924805 35.74804688 62.44335938 C37.10286192 62.48316352 38.45767967 62.52287591 39.8125 62.5625 C41.18686105 62.60573723 42.56121024 62.64935312 43.93554688 62.69335938 C47.29024904 62.79929734 50.64511143 62.90013948 54 63 C54 69.93 54 76.86 54 84 C51.45925781 84.03738281 48.91851562 84.07476563 46.30078125 84.11328125 C43.83170108 84.15953354 41.36277028 84.21075361 38.89379883 84.26245117 C37.18197762 84.29564169 35.47004852 84.32369189 33.75805664 84.34643555 C31.29266521 84.38009032 28.82825719 84.43240974 26.36328125 84.48828125 C25.22080681 84.49786613 25.22080681 84.49786613 24.05525208 84.50764465 C19.55938406 84.63118117 16.51967335 85.12368582 13 88 C9.49269081 92.8932887 10.67249065 99.70092791 10.6875 105.4375 C10.67138672 106.66533203 10.65527344 107.89316406 10.63867188 109.15820312 C10.63802734 110.34220703 10.63738281 111.52621094 10.63671875 112.74609375 C10.63373779 113.82560303 10.63075684 114.9051123 10.62768555 116.01733398 C11.05271056 119.42227207 11.96001863 121.26237432 14 124 C17.85604425 126.57069617 21.12746343 126.35065056 25.60546875 126.4140625 C26.44467361 126.43342865 27.28387848 126.4527948 28.14851379 126.4727478 C30.82807258 126.53251213 33.5076744 126.57891612 36.1875 126.625 C38.00457599 126.6631827 39.82163394 126.70223461 41.63867188 126.7421875 C46.09235386 126.83984704 50.54584441 126.91943936 55 127 C55 133.27 55 139.54 55 146 C22.99 146 -9.02 146 -42 146 C-42.0825 137.54375 -42.165 129.0875 -42.25 120.375 C-42.28641602 117.7148584 -42.32283203 115.0547168 -42.36035156 112.31396484 C-42.3720383 110.19629727 -42.38223016 108.07862069 -42.390625 105.9609375 C-42.4213208 104.32282104 -42.4213208 104.32282104 -42.45263672 102.65161133 C-42.45550139 96.39946251 -42.17837998 92.75426624 -38 88 C-37.28493286 87.15066895 -37.28493286 87.15066895 -36.55541992 86.28417969 C-36.11818604 85.83461914 -35.68095215 85.38505859 -35.23046875 84.921875 C-34.73732178 84.4057666 -34.2441748 83.8896582 -33.73608398 83.35791016 C-32.96953491 82.56199463 -32.96953491 82.56199463 -32.1875 81.75 C-22.92619112 71.90977128 -15.05403574 62.06850672 -14.79467773 48.02612305 C-14.77473251 47.06550461 -14.75478729 46.10488617 -14.73423767 45.11515808 C-14.71752518 44.0910231 -14.70081268 43.06688812 -14.68359375 42.01171875 C-14.66281265 40.95338333 -14.64203156 39.89504791 -14.62062073 38.80464172 C-14.55536897 35.43232559 -14.49635363 32.05993326 -14.4375 28.6875 C-14.3942916 26.39777866 -14.35067657 24.10806495 -14.30664062 21.81835938 C-14.19971259 16.21231955 -14.09790137 10.60620434 -14 5 C-12.23244474 4.15973604 -10.46082737 3.32801278 -8.6875 2.5 C-7.70136719 2.0359375 -6.71523438 1.571875 -5.69921875 1.09375 C-3 0 -3 0 0 0 Z " fill="#D2905A" transform="translate(293,429)"/>
<path d="M0 0 C3.74648439 1.17944879 4.4416917 1.77986404 6.375 5.0625 C6.74414349 7.28821945 6.74414349 7.28821945 6.73576355 9.75750732 C6.73988754 10.69697708 6.74401154 11.63644684 6.7482605 12.60438538 C6.73747467 13.62793625 6.72668884 14.65148712 6.71557617 15.70605469 C6.71623329 17.33090034 6.71623329 17.33090034 6.71690369 18.98857117 C6.71481289 22.57068882 6.69146743 26.15233905 6.66796875 29.734375 C6.66237385 32.2173029 6.65810325 34.70023411 6.65510559 37.1831665 C6.64481973 43.05154023 6.62117313 48.91974126 6.59105712 54.78804421 C6.55421934 62.12559614 6.53811899 69.46315795 6.52148438 76.80078125 C6.48930508 89.88810865 6.43809814 102.97528771 6.375 116.0625 C1.425 116.0625 -3.525 116.0625 -8.625 116.0625 C-8.65078125 113.71511719 -8.6765625 111.36773437 -8.703125 108.94921875 C-8.74153974 106.67541518 -8.78670141 104.40183883 -8.83251953 102.12817383 C-8.86074193 100.54820608 -8.88195025 98.96809682 -8.89599609 97.38793945 C-8.91740965 95.11596155 -8.96404534 92.84568729 -9.015625 90.57421875 C-9.01685364 89.86786789 -9.01808228 89.16151703 -9.01934814 88.4337616 C-9.11482308 85.23591199 -9.23542889 83.48772054 -11.43652344 81.08520508 C-14.76964101 79.52759357 -17.13838347 80.15856238 -20.625 81.0625 C-23.07878929 84.74318393 -22.93146214 86.74303719 -23.0390625 91.13671875 C-23.07467285 92.38799561 -23.1102832 93.63927246 -23.14697266 94.9284668 C-23.18097168 96.51957275 -23.2149707 98.11067871 -23.25 99.75 C-23.37375 104.803125 -23.4975 109.85625 -23.625 115.0625 C-36.165 115.0625 -48.705 115.0625 -61.625 115.0625 C-61.86149073 101.18837725 -62.02233612 88.52543199 -58.625 75.0625 C-58.42003906 74.17046875 -58.21507812 73.2784375 -58.00390625 72.359375 C-53.3062845 54.26915461 -40.48560963 35.14842383 -24.625 25.0625 C-24.295 25.0625 -23.965 25.0625 -23.625 25.0625 C-23.595271 26.53058105 -23.595271 26.53058105 -23.56494141 28.02832031 C-23.48875376 31.66643597 -23.40005705 35.30415853 -23.30761719 38.94189453 C-23.26938171 40.51505765 -23.23451934 42.08830658 -23.203125 43.66162109 C-23.15735578 45.92576723 -23.09938239 48.18932547 -23.0390625 50.453125 C-23.02751129 51.15431458 -23.01596008 51.85550415 -23.00405884 52.57794189 C-22.85756019 57.64597621 -22.85756019 57.64597621 -20.625 62.0625 C-17.05314957 63.05468067 -14.78126174 63.67510378 -11.42759705 61.89828491 C-9.02369449 59.45012377 -9.1364189 58.14745858 -9.15844727 54.75244141 C-9.1548671 53.6676651 -9.15128693 52.58288879 -9.14759827 51.46524048 C-9.1620549 50.29335175 -9.17651154 49.12146301 -9.19140625 47.9140625 C-9.18179963 45.44010354 -9.17202891 42.96614522 -9.16210938 40.4921875 C-9.17071253 36.58586481 -9.18754424 32.67970618 -9.2097168 28.7734375 C-9.22421953 25.00748283 -9.20899255 21.2424831 -9.19140625 17.4765625 C-9.20788712 16.30872223 -9.22436798 15.14088196 -9.24134827 13.93765259 C-9.185625 4.90681623 -9.185625 4.90681623 -6.31616211 1.79052734 C-3.625 0.0625 -3.625 0.0625 0 0 Z " fill="#D2905A" transform="translate(322.625,93.9375)"/>
<path d="M0 0 C0.515625 0.70125 1.03125 1.4025 1.5625 2.125 C9.88031626 11.93575765 24.33232476 19.06959362 37.11621094 20.18457031 C55.11238414 21.24048761 71.67239689 17.19440319 85.6875 5.25 C87.90465926 3.21799965 89.30512317 1.54231525 91 -1 C93.16874252 -0.49396008 94.99967627 -0.00016187 97 1 C97.12703233 7.44102868 97.21444812 13.88173302 97.2746582 20.32373047 C97.29976434 22.51395744 97.33385637 24.70410094 97.37719727 26.89404297 C97.43801907 30.04675922 97.46624923 33.19836553 97.48828125 36.3515625 C97.51408768 37.32678864 97.5398941 38.30201477 97.56648254 39.30679321 C97.56825872 43.63606404 97.54652175 46.95636694 94.84448242 50.47802734 C89.5096845 55.20796147 84.913346 56.44703874 77.90258789 56.40405273 C76.71845055 56.41434761 76.71845055 56.41434761 75.51039124 56.42485046 C72.91429392 56.44307422 70.31880349 56.43928738 67.72265625 56.43359375 C65.90953883 56.43815771 64.09642313 56.44346392 62.28330994 56.44947815 C58.48803671 56.45840058 54.69297401 56.45599606 50.89770508 56.44604492 C46.0443502 56.43455685 41.19172308 56.45476853 36.33846378 56.48396206 C32.59540728 56.50234583 28.85252447 56.50202726 25.10943413 56.49632454 C23.32054053 56.49617159 21.53163497 56.50219421 19.7427845 56.51461601 C17.23699985 56.52956559 14.73255073 56.51882082 12.22680664 56.50170898 C11.1285556 56.51621094 11.1285556 56.51621094 10.00811768 56.53100586 C4.49711422 56.4525647 1.45240805 55.00970339 -3 52 C-6.21819802 48.45998218 -7.127056 45.34254284 -7.11352539 40.62036133 C-7.11344986 39.73967484 -7.11337433 38.85898834 -7.11329651 37.95161438 C-7.10813522 37.00465195 -7.10297394 36.05768951 -7.09765625 35.08203125 C-7.0962413 34.10965012 -7.09482635 33.13726898 -7.09336853 32.13542175 C-7.08776817 29.02774996 -7.07521562 25.92015004 -7.0625 22.8125 C-7.05748505 20.70638125 -7.05292213 18.60026137 -7.04882812 16.49414062 C-7.03779862 11.32939936 -7.02053375 6.16471187 -7 1 C-3.375 -1.125 -3.375 -1.125 0 0 Z " fill="#D3915A" transform="translate(315,421)"/>
<path d="M0 0 C0.87435524 -0.00843994 1.74871049 -0.01687988 2.64956135 -0.02557558 C4.09146645 -0.01656051 4.09146645 -0.01656051 5.56250095 -0.00736332 C6.58313006 -0.01274886 7.60375916 -0.01813439 8.65531641 -0.02368313 C12.09166705 -0.03804535 15.52763695 -0.03083855 18.96400547 -0.023736 C21.42098394 -0.02943524 23.87795976 -0.03639775 26.33493137 -0.04453373 C32.32570865 -0.06065858 38.31633509 -0.06255576 44.3071193 -0.05732083 C49.17544586 -0.05328319 54.04374139 -0.05471784 58.91206646 -0.06006908 C59.60434541 -0.06081751 60.29662436 -0.06156593 61.00988146 -0.06233703 C62.41614394 -0.06386847 63.82240641 -0.06540682 65.22866888 -0.066952 C78.42349917 -0.08068757 91.61827021 -0.07523199 104.81309915 -0.06376678 C116.88973653 -0.05383373 128.96622071 -0.06677437 141.04283445 -0.09070098 C153.43694072 -0.11507198 165.83097559 -0.12470476 178.22510535 -0.11804825 C185.18594286 -0.1145515 192.14666252 -0.11681793 199.10748196 -0.13429928 C205.65165889 -0.15053008 212.19559015 -0.14587078 218.73977566 -0.12699413 C221.14564551 -0.12329379 223.55153685 -0.12645846 225.95738697 -0.13687992 C229.23389746 -0.14999235 232.50942242 -0.13862835 235.78588963 -0.12088871 C236.74492897 -0.13049372 237.70396832 -0.14009872 238.69206947 -0.14999479 C245.09557761 -0.07833169 245.09557761 -0.07833169 248.3245182 2.22804832 C250.29498342 5.22908381 250.38474701 6.85743505 249.73768711 10.38031673 C247.72402154 13.17520823 246.11364515 15.07716835 242.65054023 15.84015286 C240.00466614 16.02456075 237.40051072 16.04163042 234.74829197 16.00850582 C233.73412112 16.01560021 232.71995028 16.0226946 231.67504698 16.03000396 C228.27228457 16.04762444 224.87065824 16.02945762 221.46791172 16.01142025 C219.0303403 16.01655745 216.59277258 16.02383721 214.15521336 16.03310299 C208.21945951 16.04972258 202.28400613 16.04296645 196.34828155 16.02501477 C191.52480316 16.01098989 186.70141413 16.0070957 181.87791729 16.01045704 C180.84823142 16.0111732 180.84823142 16.0111732 179.79774382 16.01190383 C178.40323839 16.01293016 177.00873298 16.01398552 175.6142276 16.0150696 C163.28381423 16.02363688 150.95355984 16.00696011 138.62318516 15.97724056 C126.65599485 15.94839674 114.68903351 15.9413225 102.72181797 15.95673275 C89.69146412 15.97348902 76.66121897 15.97753552 63.6308623 15.96002239 C62.2417886 15.95817799 60.85271489 15.95634326 59.46364117 15.95451832 C58.78017961 15.95360623 58.09671805 15.95269414 57.39254553 15.95175441 C52.57380169 15.9461459 47.75511087 15.94945905 42.9363699 15.95606327 C36.45288055 15.9645963 29.96964738 15.95165615 23.48620892 15.92421436 C21.10292258 15.91731158 18.71960545 15.91725268 16.33631992 15.92442989 C13.09054008 15.93308017 9.84579191 15.91724274 6.60009861 15.89498043 C5.6502054 15.9032212 4.70031218 15.91146196 3.72163433 15.91995245 C-2.63971652 15.83905785 -2.63971652 15.83905785 -5.84770775 13.47534752 C-8.25267583 9.91358882 -7.73222347 7.60951201 -7.26231289 3.38031673 C-5.12386849 0.45942664 -3.54650631 0.00482695 0 0 Z " fill="#D4925B" transform="translate(239.26231288909912,224.61968326568604)"/>
<path d="M0 0 C10.56 0 21.12 0 32 0 C32 35.64 32 71.28 32 108 C21.44 108 10.88 108 0 108 C0 72.36 0 36.72 0 0 Z " fill="#D5925B" transform="translate(344,101)"/>
<path d="M0 0 C19.78259102 13.18839401 34.00929241 32.33901941 39 56 C40.12174624 63.69855981 40.11577188 71.29376215 40.0625 79.0625 C40.041875 83.331875 40.02125 87.60125 40 92 C26.8 92 13.6 92 0 92 C0 61.64 0 31.28 0 0 Z " fill="#D5925B" transform="translate(421,117)"/>
<path d="M0 0 C1.0621875 0.40992188 2.124375 0.81984375 3.21875 1.2421875 C4.64574205 1.78669762 6.07283059 2.33095492 7.5 2.875 C8.19609375 3.14441406 8.8921875 3.41382813 9.609375 3.69140625 C33.72941015 12.84808626 56.56294388 8.8713335 80 0 C81.7619634 16.01784912 81.7619634 16.01784912 77.90234375 21.65625 C72.76151021 27.83714202 66.19885125 32.49918878 59 36 C58.3503125 36.32484375 57.700625 36.6496875 57.03125 36.984375 C47.03559765 41.63147653 34.97639773 41.33740662 24.6875 37.9375 C18.5257079 35.47553396 13.82252325 32.51888289 9 28 C7.73929687 26.99066406 7.73929687 26.99066406 6.453125 25.9609375 C2.21843222 22.13393254 -0.14701381 19.1111066 -0.5625 13.35546875 C-0.65371397 8.87717113 -0.39351553 4.45984265 0 0 Z " fill="#D3915A" transform="translate(320,387)"/>
<path d="M0 0 C3.74648439 1.17944879 4.4416917 1.77986404 6.375 5.0625 C6.74414349 7.28821945 6.74414349 7.28821945 6.73576355 9.75750732 C6.73988754 10.69697708 6.74401154 11.63644684 6.7482605 12.60438538 C6.73747467 13.62793625 6.72668884 14.65148712 6.71557617 15.70605469 C6.71601425 16.78928513 6.71645233 17.87251556 6.71690369 18.98857117 C6.71481289 22.57068882 6.69146743 26.15233905 6.66796875 29.734375 C6.66237385 32.2173029 6.65810325 34.70023411 6.65510559 37.1831665 C6.64481973 43.05154023 6.62117313 48.91974126 6.59105712 54.78804421 C6.55421934 62.12559614 6.53811899 69.46315795 6.52148438 76.80078125 C6.48930508 89.88810865 6.43809814 102.97528771 6.375 116.0625 C1.425 116.0625 -3.525 116.0625 -8.625 116.0625 C-8.74078749 101.67633752 -8.82966192 87.29028566 -8.88406086 72.90375233 C-8.91016814 66.22365151 -8.9455878 59.54393106 -9.00219727 52.86401367 C-9.05647493 46.41900687 -9.08641207 39.97430667 -9.09938622 33.52908897 C-9.10863356 31.06864278 -9.12669128 28.60821359 -9.15365028 26.14789772 C-9.18988236 22.70475466 -9.19494754 19.26288272 -9.19262695 15.81958008 C-9.21060333 14.79962448 -9.22857971 13.77966888 -9.24710083 12.72880554 C-9.21277466 8.03011853 -9.14813525 5.7803732 -6.31608582 1.89408875 C-3.625 0.0625 -3.625 0.0625 0 0 Z " fill="#CE8E58" transform="translate(399.625,93.9375)"/>
<path d="M0 0 C19.14 0 38.28 0 58 0 C58 4.29 58 8.58 58 13 C38.86 13 19.72 13 0 13 C0 8.71 0 4.42 0 0 Z " fill="#D2905A" transform="translate(318,528)"/>
<path d="M0 0 C5.28 0 10.56 0 16 0 C18.23196001 4.46392002 17.69370821 10.63742803 16.31640625 15.328125 C14.10634207 20.13340978 11.38802115 23.07465256 7 26 C4.69 26.66 2.38 27.32 0 28 C0 18.76 0 9.52 0 0 Z " fill="#CC8C57" transform="translate(464,255)"/>
<path d="M0 0 C4.95 0 9.9 0 15 0 C15 9.24 15 18.48 15 28 C8.6716317 25.8905439 5.1375167 24.19054064 1.75 18.5 C-1.00309009 12.99381982 -1.19377761 9.10399468 -1 3 C-0.67 2.01 -0.34 1.02 0 0 Z " fill="#CA8B57" transform="translate(241,255)"/>
<path d="M0 0 C0.66 0.33 1.32 0.66 2 1 C-9.22 12.22 -20.44 23.44 -32 35 C-32.66 34.67 -33.32 34.34 -34 34 C-33.57589844 33.5875 -33.15179688 33.175 -32.71484375 32.75 C-29.55611016 29.63986231 -26.51108093 26.49096792 -23.625 23.125 C-17.81587349 16.40616688 -11.48506699 10.26505707 -4.7265625 4.5078125 C-3.07703058 3.06727105 -1.52920426 1.56673075 0 0 Z " fill="#805837" transform="translate(123,87)"/>
</svg>
